<svg xmlns="http://www.w3.org/2000/svg" viewBox="0 0 125 125"><title>Artboard 1</title><g id="person_9" data-name="person 9"><path id="shirt" d="M114.89,129.79c0-7-.94-10.87-1.52-16a135.86,135.86,0,0,0-3.5-18.44c-2.49-10-10.68-13.15-18.32-17.07-1.87-1-12.84-4.31-12.84-4.31h-.78c-1.94-.18-29.81-1.72-29.81-1.72-9,4.2-21.44,7.47-29.24,14.37-5.17,4.57-9.34,15.07-9.34,21.67,0,1.74-.43,3.39-.41,5.12,0,2.21-.87,4.34-.89,6.55,0,1.17.21,2.33.23,3.5,0,2.39-.33,3.86-.31,6.37" fill="#f7bb92" stroke="#020202" stroke-miterlimit="10" stroke-width="0.75"/><g id="head_and_neck" data-name="head and neck"><path d="M48.12,72.21l-7.34,3.08,0,10.63v8.15c0,5.49,1.2,9.92,5.56,13.5a26.58,26.58,0,0,0,16.08,6.19,31.17,31.17,0,0,0,13.85-2.83c2.78-1.29,5.78-3.1,7.34-5.93,2-3.57,1.12-8.11,1.27-12,.21-5.61.33-11.22.4-16.84a38.25,38.25,0,0,0-6.6-2.23C70.14,71.83,55.11,71.32,48.12,72.21Z" fill="#a56621" stroke="#000" stroke-miterlimit="10" stroke-width="0.75"/><path id="head-3" data-name="head" d="M47.76,81.05s1-6.16.86-7.82,0-7.82,0-7.82A36.25,36.25,0,0,1,46,61a45.66,45.66,0,0,0-2.28-5.78c-1.25-2.63-1.08-6.38.61-6.69s3.63,1.11,4.33,2.07S51.69,55,51.69,55s.26-4.78,1-6.39,5.32-8.34,5.85-11,.29-3.27.29-3.27,4.59,2.78,7.84.92,6.92-3.77,6.92-3.77,1.11,3.07,2.09,3.49,6.26,1.21,7,3.16,1.36,7,1,11.93-1.18,15.42-2.27,18.12a69.81,69.81,0,0,1-3.66,7l1.07,4.45" fill="#a56621" stroke="#000" stroke-miterlimit="10" stroke-width="0.75"/><path d="M62.33,113.77s.28-5.44.52-7.33" fill="#7f4c0e" stroke="#000" stroke-miterlimit="10" stroke-width="0.75"/><path d="M61.48,78.23s2.7,4.24,7.16,4.15c4.17-.08,5.19-5.23,5.19-5.23" fill="#a56621" stroke="#000" stroke-miterlimit="10" stroke-width="0.75"/><path d="M62,85.29a40.69,40.69,0,0,1-4.47-1.35" fill="none" stroke="#020202" stroke-miterlimit="10" stroke-width="0.75"/><path d="M62.45,79.48s-3.8-.52-4.87-2.4" fill="none" stroke="#231f20" stroke-miterlimit="10" stroke-width="0.75"/><path d="M73.57,29.23s1.57.12,1.57,3.06c0,1.11-.49,1.16.41,1.69,2,1.13,3.92,2.12,5.9,3.13,2.42,1.25,2,4.7,2.29,7s-.34,12.66-1.69,21.48a19.09,19.09,0,0,1-2.11,6.09,19.58,19.58,0,0,1-6.53,6.46" fill="none" stroke="#231f20" stroke-miterlimit="10" stroke-width="0.75"/><path d="M49.28,64.66a1,1,0,0,0,1.23-.11c.72-.53.89-.08.89-.08" fill="none" stroke="#231f20" stroke-miterlimit="10" stroke-width="0.75"/><path d="M46.31,62.15c-.51-1-.38-2.81-1.16-3.94a22.18,22.18,0,0,1-2.28-5.51c-.29-1.34.26-3.86,1.42-4.22s2.74-.84,4,1.27S51.69,55,51.69,55s.09-4.86,1.47-7.53,4.78-6.8,4.84-8.08,1.73-3.57,1.07-4.36-1.19.1,3,.59,10.15-3.58,11.57-6.09" fill="none" stroke="#231f20" stroke-miterlimit="10" stroke-width="0.75"/></g><g id="earring"><path d="M46.48,66a3.09,3.09,0,0,1-3.09-2.83,3.12,3.12,0,0,1,2.82-3.36h.27A3.1,3.1,0,0,1,46.75,66Z" fill="#fff"/><path d="M46.49,60.17a2.73,2.73,0,0,1,.23,5.44h-.24a2.73,2.73,0,0,1-.24-5.44h.25m0-.75h-.31a3.48,3.48,0,0,0,.3,6.94l.31,0a3.47,3.47,0,0,0-.3-6.93Z"/></g><g id="eyes-4" data-name="eyes"><path d="M75.14,40.35s2.89-2.08,4.5,1.7" fill="none" stroke="#231f20" stroke-miterlimit="10" stroke-width="0.75"/><path d="M64.34,40a3.27,3.27,0,0,0-3.78,1.19" fill="none" stroke="#231f20" stroke-miterlimit="10" stroke-width="0.75"/><path d="M75.68,55.47a1.12,1.12,0,1,0,1-1.43A1.23,1.23,0,0,0,75.68,55.47Z" fill="#fff" stroke="#020202" stroke-miterlimit="10" stroke-width="0.75"/><path d="M62.64,55.27a1.12,1.12,0,1,0,1-1.43A1.24,1.24,0,0,0,62.64,55.27Z" fill="#fff" stroke="#020202" stroke-miterlimit="10" stroke-width="0.75"/><path d="M78.24,59.66s-.09.39-1.39.12-1.62-.88-1.62-.88" fill="none" stroke="#231f20" stroke-miterlimit="10" stroke-width="0.75"/><path d="M64.53,58.79s-1.2,1.54-2.25,1.24a3.64,3.64,0,0,1-1.61-.9" fill="none" stroke="#231f20" stroke-miterlimit="10" stroke-width="0.75"/><path d="M64.75,44.59S62.5,42.1,61,44.92s-2.13,4.16-2.13,4.16" fill="none" stroke="#231f20" stroke-miterlimit="10" stroke-width="0.75"/><path d="M75.55,45s1.52-1.67,3.25.56a13.64,13.64,0,0,1,2.29,4.22" fill="none" stroke="#231f20" stroke-miterlimit="10" stroke-width="0.75"/></g><path id="nose-4" data-name="nose" d="M69.33,59.15S71,62.24,72.6,63.24c6.93,4.3-5.41,7-5.93,3.3" fill="none" stroke="#231f20" stroke-miterlimit="10" stroke-width="0.75"/><path id="hair-4" data-name="hair" d="M43.5,48.65s-2.08-6.9-2.08-10c0-6.65,3.51-13.16,3.51-13.16a14.64,14.64,0,0,1,.36-5.09C46,18.13,50.67,13,55.34,12.56s8,.24,9,.66a45.43,45.43,0,0,1,3.93,2.48,17.34,17.34,0,0,1,8.47-1.63c4.45.41,8.22,1.43,9.65,3.23s3.08,3.58,3.24,6.64A44.9,44.9,0,0,1,89.48,30a15.24,15.24,0,0,1,.74,4.84c-.11,2.38-1.9,7.37-2.93,9.55a47.26,47.26,0,0,1-3.63,5.74s-.19-7.81-.16-9.23-1.26-4-3-4.41-4.76-.66-5.35-1.72-1.55-3.22-1.55-3.22-.83.41-3,1.58-3,2.48-4.7,3.07-3.92-.17-4.73-.35a13.84,13.84,0,0,1-2.38-1.45,10.48,10.48,0,0,1-.21,5,32.61,32.61,0,0,1-4.21,6.93C52.69,48.65,51.69,55,51.69,55s-4.27-5.8-5.24-6.39A3.84,3.84,0,0,0,43.5,48.65Z" fill="#231f20" stroke="#000" stroke-miterlimit="10" stroke-width="0.75"/><g id="headband"><path d="M46.73,48.88A15.64,15.64,0,0,1,49.67,52c1.07-2.56,1.65-5,2.71-7.59a92.37,92.37,0,0,1,4.56-8.64,6.77,6.77,0,0,1,2.17-2.92,46,46,0,0,0,6.66-4.54c.87-.76,2.43-2.56,3.69-2.56,1,0,3.6,2.74,4.56,3,1.57.5,2.49,1.49,3.84,2.5,3.7,2.73,4.49,6.49,5,10,.43,2.93.86,7.88,1,10.84l3.48-7.72s.45-12.84-6.2-16.73C76.33,24.9,71,25.35,68.27,25.44c-3.43.1-7.81-.34-10.71,1.35a20.32,20.32,0,0,0-8.74,9.5C47.38,39.64,45,44.77,43.75,48.2A4.76,4.76,0,0,1,46.73,48.88Z" fill="#f44711" stroke="#020202" stroke-miterlimit="10" stroke-width="0.75"/><path d="M70,24.81s-1.08-4.29-6.55-3.38-6.9,4.21-9.76,4.33-4.87.33-4.87.33,4.75,4.18,8.82,4.41S66.85,29.55,70,24.81Z" fill="#f44711" stroke="#020202" stroke-miterlimit="10" stroke-width="0.75"/><path d="M69.32,25c-.74-3,3.13-5.47,5.78-5,3.09.6,5.15,2.94,7.57,4.72s4.67,1.41,7.41,1.74c0,0-4.43,2.79-8.44,3.06-2.3.16-6.19,0-8.23-1.09-1.7-.9-3.32-1.24-4-3.14A2.07,2.07,0,0,1,69.32,25Z" fill="#f44711" stroke="#020202" stroke-miterlimit="10" stroke-width="0.75"/></g><g id="mouth-3" data-name="mouth"><path d="M65.06,71.41a9.7,9.7,0,0,1-.77-.8c-.36-.41-1.46-2-2.16-1.75s-.69,2.73-.69,3.38A3.39,3.39,0,0,0,62,74.32a3.57,3.57,0,0,0,1.84,1.09,21,21,0,0,0,2.6.65,3.73,3.73,0,0,0,1.56,0,1.47,1.47,0,0,0,1.1-1,1.53,1.53,0,0,0-.57-1.4,6.53,6.53,0,0,0-1.35-.81A10,10,0,0,1,65.06,71.41Z" fill="#fff" stroke="#020202" stroke-miterlimit="10" stroke-width="0.75"/></g></g></svg>