<svg xmlns="http://www.w3.org/2000/svg" viewBox="0 0 125 125"><title>Artboard 9</title><g id="Person_6" data-name="Person 6"><path id="neck" d="M77.14,82.32s-.94-1-.94-1.6V74L50,75.29s.29,8-.31,8.66c0,0-6.14,1.6-5.24,3.49,1.88,4,10.16,9.52,15.87,9.89,7.44.48,12.92-.13,17.33-3C80.53,92.53,81,84,77.14,82.32Z" fill="#fce7d4" stroke="#020202" stroke-miterlimit="10" stroke-width="0.75"/><path id="face-2" data-name="face" d="M80.87,56.94s-.54,9.26-.74,10a13,13,0,0,1-1.48,3.59,69.83,69.83,0,0,1-5.55,7.59c-1,1-3.14,4.15-4.32,4.49a27.92,27.92,0,0,1-5.91,1c-1.26-.08-5.8-.68-6.8-1.29s-4.43-4.67-7.25-8.44-4.3-6.82-4.5-7.77a41.2,41.2,0,0,1-.27-4.37l-.49.13s-.06,1-.9,1.07c-1.2.15-1.92-1.36-2.23-2.29-.53-1.55-.3-3.25-.85-4.79s-3.1-6.94-1.08-8.31c1.77-1.2,3.34.5,3.92,2.1a16.14,16.14,0,0,1,.44,1.65l.34-.09s-.05-3,0-5.1c.09-3.91-1.11-8.29.36-12.07,4.83-12.49,9.4-13,20.6-13.32,10-.33,15.6,7.78,16.35,11.49a36.66,36.66,0,0,1,.89,9c-.15,2.75-.52,9.6-.52,9.6l.32.07a29.61,29.61,0,0,1,1.33-3.35,1.73,1.73,0,0,1,3.21,1.3c-.3,1.07-.83,4.18-1,5.42a15.78,15.78,0,0,0,0,2.75c0,.83-.36,3.73-1.58,3.7C82.35,60.69,80.48,60.74,80.87,56.94Z" fill="#fce7d4" stroke="#020202" stroke-miterlimit="10" stroke-width="0.75"/><g id="hair_copy" data-name="hair copy"><rect x="40.7" y="94.29" width="45.48" height="32.17" fill="#fcfaf7"/><path d="M85.81,94.66v31.42H41.08V94.66H85.81m.75-.75H40.33v32.92H86.56V93.91Z"/><rect x="48.07" y="101.44" width="31" height="5.24" fill="#f44711"/><rect x="48.07" y="113.13" width="31" height="5.24" fill="#f44711"/></g><g id="parrot"><path d="M107,70.36s-6.73-4.14-7.52-5c-2.34-2.63-7.92-1.47-9.24.11s-1.06,4.38-.93,4.91,4.36,3.82,6.21,4.22,2.53-.26,2.58.79-.86,2.77-.6,4.49-.91,2.38.6,4.09a23.25,23.25,0,0,1,3.1,5.68c.39.92,2.64,1.32,4.09,1.72s1.58,7.12,1.71,11.88-.13,5.69,1.33,10,2.9,5,1.45,7.9-2.38,4.16-1.59,4.69,0,.53,2.19-1.85,2.17-6.38,2.57-9.81.79-7.14.79-7.14l1.45,3s2.24-25.61,2.38-28-2.78-8.72-4.76-11S107,70.36,107,70.36Z" fill="#3caa33" stroke="#000" stroke-miterlimit="10" stroke-width="0.75"/><path d="M95.5,67.85c0,.84-1.49,1.32-1.89,1.32s-.5-.33-.5-1.17.93-2,1.32-2S95.5,67,95.5,67.85Z" fill="#020202" stroke="#fff" stroke-miterlimit="10" stroke-width="0.75"/><path d="M106.92,70.56a15.49,15.49,0,0,0,0,8.89,50.36,50.36,0,0,0,4.1,9.48" fill="none" stroke="#000" stroke-miterlimit="10" stroke-width="0.75"/></g><path id="parrot_beak" data-name="parrot beak" d="M88.87,71.47a2.81,2.81,0,0,1,2.51-.85c1.45.33,4.56,1.06,5,1.91s1.45,2.18,0,2.18-3.83-.92-3.9.53S94.12,78,93,77.88a2.55,2.55,0,0,1-2.43-1.52C90,75.17,88.34,73.64,88.87,71.47Z" fill="#f99a12" stroke="#000" stroke-miterlimit="10" stroke-width="0.75"/><path d="M120.59,111.44c-2.59-9.55-3.5-14.55-9.86-17.78-6.77-3.44-21.79-6.93-28.2-8.32-1.09-1.92-4.83-4-4.34-1.76.56,2.54.81,4.16-.73,5.51a11.33,11.33,0,0,1-4.69,3c-2.07.59-.94,8-.94,8a.08.08,0,0,0,0,0,7.48,7.48,0,0,1-2,.39H67.61l.16,26.33,54.86-.53S123.62,122.59,120.59,111.44Z" fill="#202133" stroke="#000" stroke-miterlimit="10" stroke-width="0.75"/><path d="M55.17,100.5a6.35,6.35,0,0,1-1.57-.26.27.27,0,0,0,.11-.16s1.14-7.45-.93-8a11.33,11.33,0,0,1-4.69-3c-1.54-1.35-2.18-3-1.63-5.51.48-2.19-2.41-.25-3.41,1.63-6,1.3-21.79,4.9-28.78,8.45C7.91,96.89,7,101.89,4.41,111.44c-3,11.15-2,14.86-2,14.86l54.86.53.16-26.33Z" fill="#202133" stroke="#000" stroke-miterlimit="10" stroke-width="0.75"/><path id="parrot_foot" data-name="parrot foot" d="M103.92,90.67c-1.26-.33-2.07-1.47-3.4-.74a9.82,9.82,0,0,0-2.7,2.75,9.61,9.61,0,0,0-1,2.55,3.79,3.79,0,0,0,.2,2.5c.35.28.93-2.37,1.73-3.24.5-.56,1.45-1.52,2.38-1.24a7.36,7.36,0,0,1-.48,1.13,4.05,4.05,0,0,0-.15,1.51,4.18,4.18,0,0,0,1.72,3,1.9,1.9,0,0,0,1,.4,1.18,1.18,0,0,0,1-.68c-.84,0-1.14-.62-1.42-1.41a2.82,2.82,0,0,1,.06-2.33,4.62,4.62,0,0,1,1.32-1.81c.67-.5,1.6-.85,2.31-1.3a8.37,8.37,0,0,0-1.17-.62,6.54,6.54,0,0,0-1.12-.41Z" fill="#f99a12" stroke="#000" stroke-miterlimit="10" stroke-width="0.75"/><circle cx="83.25" cy="105.77" r="3.32" fill="#e0be2f" stroke="#020202" stroke-miterlimit="10" stroke-width="0.75"/><circle cx="83.25" cy="118.62" r="3.32" fill="#e0be2f" stroke="#020202" stroke-miterlimit="10" stroke-width="0.75"/><circle cx="37.73" cy="105.77" r="3.32" fill="#e0be2f" stroke="#020202" stroke-miterlimit="10" stroke-width="0.75"/><circle cx="37.73" cy="118.62" r="3.32" fill="#e0be2f" stroke="#020202" stroke-miterlimit="10" stroke-width="0.75"/><path id="beard-3" data-name="beard" d="M74.51,60a29.55,29.55,0,0,1,4.89,2.4c1,.61,3,2.13,2.43,3.52-.17.46-.45,1-.45,1A16.22,16.22,0,0,0,83,69.18a6.77,6.77,0,0,1,1.31,4.55,2,2,0,0,1-1.74,1.81,8.92,8.92,0,0,1-1.26-.28c.52.15.12,1.81.06,2.07-.49,2-1.35,4.9-3.93,4.53a32.4,32.4,0,0,1-2,4.52c-1,1.3-2.71,1.85-4,.66.14.13-1,1.74-1.09,1.91a4.53,4.53,0,0,1-1.8,1.54c-1.84.76-3.56-.87-4.91-1.91a11.55,11.55,0,0,1-2.3,1.57C59,91.25,57,90.28,56,88.07c0,0-1.08,1.08-1.93,1.08a5.32,5.32,0,0,1-3.82-2.22,10.49,10.49,0,0,1-1.19-2.68c-.59.56-1.15,1-1.9.55a7,7,0,0,1-2.75-3.29c-.16-.32-.91-3.24-.53-3.4,0,0-1.08.45-1.65-.06-1.12-1-1.1-4.67-.46-5.86a37.16,37.16,0,0,1,2.56-3.76c0-.06-.45-1.3-.47-1.44-.4-2.13,1.18-3.36,2.74-4.5a14.49,14.49,0,0,1,5.42-2.71c2.84-.57,6.66-1.37,6.66-1.37l.62,2.16S55,62,53.2,63.65s-3.65,3.87-3.59,6.6-.07,4.51,2.15,5.19,6.39,1.81,7.76.79S62.31,74,62.31,74l3,.18a4.24,4.24,0,0,0,3.81,2.08c2.5-.22,6.09-.39,6.15-3.64s-.06-6.37-1.42-7.46S68,61.44,68,61.44l1.51-3c.14-.46,4.32,1.34,4.67,1.47Z" fill="#7f500b" stroke="#020202" stroke-miterlimit="10" stroke-width="0.75"/><path id="nose-4" data-name="nose" d="M63.14,54.78s1.26,2.4,2.4,2.65,4.68,0,4.55,2S67.56,64,65.29,64a9,9,0,0,1-4.51-1.18c-1.35-.8-3.85-4.13-2.46-5.61" fill="#fce7d4" stroke="#020202" stroke-miterlimit="10" stroke-width="0.75"/><g id="mouth-2" data-name="mouth"><path d="M67.27,71.51A6.24,6.24,0,0,1,65,71.13,4.54,4.54,0,0,1,63.29,69c-.21-.38-.43-.78-.67-1.13l3.55-1.54a3.73,3.73,0,0,1,1.88-.5c1.09,0,2,.45,2.07,1.07,0,.24.11.49.17.76a3.89,3.89,0,0,1,0,2.81c-.41.64-1.57,1-3,1Z" fill="#fff"/><path d="M68.05,66.2c.86,0,1.63.34,1.7.77,0,.24.11.5.17.78A3.61,3.61,0,0,1,70,70.27a3.43,3.43,0,0,1-2.72.86,5.68,5.68,0,0,1-2.1-.35c-.63-.27-1.1-1.13-1.55-2-.15-.26-.29-.52-.45-.78l3.15-1.36,0,0,0,0a3.25,3.25,0,0,1,1.65-.43m0-.75A4,4,0,0,0,66,66l-4,1.73c.94,1.08,1.47,3.16,2.84,3.75a6.42,6.42,0,0,0,2.4.41c1.38,0,2.81-.35,3.36-1.21.69-1.12.06-2.71-.14-3.84-.16-.86-1.24-1.38-2.44-1.38Z"/><path d="M55.23,67.51s1.44,1.71,3.05,1.66a13.41,13.41,0,0,0,4.18-1.31" fill="none" stroke="#000" stroke-miterlimit="10" stroke-width="0.75"/></g><g id="eyes-3" data-name="eyes"><path d="M60.67,46.57c0,3.12-3.48,6.88-6.6,6.88s-6.75-3.3-6.75-6.42,4.06-4.18,7.17-4.18S60.67,43.45,60.67,46.57Z" fill="#020202" stroke="#020202" stroke-miterlimit="10" stroke-width="0.75"/><path d="M43.18,49.43S52.64,48.35,57,46.25s18.77-15,21.85-17.74" fill="none" stroke="#020202" stroke-miterlimit="10" stroke-width="0.75"/><path d="M62.63,44.49s4,2.12,5.82-1.24,4.61-6.21,6.39-5.5,1.77,3.65,1.77,3.65" fill="none" stroke="#020202" stroke-miterlimit="10" stroke-width="0.75"/><path id="Eye" d="M73.49,46.74c0,1.48-.57,2.69-1.27,2.69S71,48.22,71,46.74s0-2.69,1.27-2.69C73.08,44.05,73.49,45.25,73.49,46.74Z" fill="#fff" stroke="#020202" stroke-miterlimit="10" stroke-width="0.75"/><path id="undereye" d="M68.59,51.21a7.11,7.11,0,0,0,3,1.29,3.46,3.46,0,0,0,2.54-1.56" fill="none" stroke="#020202" stroke-miterlimit="10" stroke-width="0.75"/></g><g id="bandana"><path d="M42.61,29.44s-14.44,4.07-15.22,9.9-1.2,10.88-1.2,10.88a25.6,25.6,0,0,0,11.88-8A18.32,18.32,0,0,0,42.61,29.44Z" fill="#f44711" stroke="#020202" stroke-miterlimit="10" stroke-width="0.75"/><path d="M41.41,29.71S28.16,39.6,29.09,45.41a53.53,53.53,0,0,1,.71,10.11s7.72-4.72,11-12.24A18.3,18.3,0,0,0,41.41,29.71Z" fill="#f44711" stroke="#020202" stroke-miterlimit="10" stroke-width="0.75"/><path d="M41.64,38.6a1.5,1.5,0,0,0,1.26.2C55.59,36.94,67.31,35,80,33.09a1.49,1.49,0,0,0,.94-.38,2.1,2.1,0,0,0,.33-1.54c-.1-2.24-1.62-3.8-2.2-5.94A14.73,14.73,0,0,0,66.49,14.05c-6.13-.67-15,.48-19.86,5.63a19.35,19.35,0,0,0-4.07,7.53,70.82,70.82,0,0,0-2,8.46,2.68,2.68,0,0,0,.36,2S41.62,38.59,41.64,38.6Z" fill="#f44711" stroke="#020202" stroke-miterlimit="10" stroke-width="0.75"/></g></g></svg>