<svg xmlns="http://www.w3.org/2000/svg" viewBox="0 0 125 125"><title>Artboard 25 copy 2</title><g id="Frames"><g id="Layer_77" data-name="Layer 77"><path id="shirt-3" data-name="shirt" d="M116.57,130.56c0-7.11-.93-11-1.52-16.16a138,138,0,0,0-3.53-18.58C109,85.75,100.77,82.57,93.07,78.62c-1.89-1-12.94-4.34-12.94-4.34h-.79c-2-.18-30-1.74-30-1.74-9,4.23-21.6,7.52-29.46,14.47-5.21,4.62-9.41,15.19-9.41,21.84,0,1.76-.43,3.42-.41,5.15,0,2.24-.88,4.38-.9,6.61,0,1.18.22,2.35.24,3.53,0,2.4-.34,3.89-.31,6.42" fill="#0b0b7f" stroke="#020202" stroke-miterlimit="10" stroke-width="0.75"/><path d="M49.31,72.54l-7.39,3.1q0,5.35,0,10.71,0,4.11,0,8.22c0,5.53,1.21,10,5.6,13.6a26.86,26.86,0,0,0,16.2,6.24,31.62,31.62,0,0,0,14-2.86c2.8-1.3,5.82-3.12,7.4-6,2-3.59,1.12-8.16,1.27-12.08.22-5.65.34-11.31.4-17a37.84,37.84,0,0,0-6.64-2.24C71.49,72.16,56.36,71.65,49.31,72.54Z" fill="#fce7d4" stroke="#020202" stroke-miterlimit="10" stroke-width="0.75"/><path id="head-3" data-name="head" d="M49,81.44s1-6.2.87-7.87,0-7.87,0-7.87a37.59,37.59,0,0,1-2.69-4.51,46.1,46.1,0,0,0-2.29-5.81c-1.26-2.65-1.09-6.43.61-6.75s3.66,1.12,4.37,2.09,3.09,4.53,3.09,4.53.26-4.82,1-6.45,5.37-8.4,5.9-11,.29-3.29.29-3.29,4.63,2.8,7.9.93,7-6.8,7-6.8,1.12,6.09,2.11,6.51,6.31,1.22,7,3.19,1.38,7,1,12-1.18,15.53-2.28,18.25a70.42,70.42,0,0,1-3.69,7.07l1.08,4.49" fill="#fce7d4" stroke="#020202" stroke-miterlimit="10" stroke-width="0.75"/><path d="M63.63,114.41s.27-5.48.52-7.38" fill="#7f4c0e" stroke="#000" stroke-miterlimit="10" stroke-width="0.75"/><path d="M62.77,78.61s2.72,4.27,7.22,4.18c4.2-.08,5.22-5.27,5.22-5.27" fill="#fce7d4" stroke="#020202" stroke-miterlimit="10" stroke-width="0.75"/><path d="M63.33,85.72a39.65,39.65,0,0,1-4.51-1.36" fill="none" stroke="#020202" stroke-miterlimit="10" stroke-width="0.75"/><path d="M63.75,79.87s-3.84-.53-4.91-2.42" fill="none" stroke="#231f20" stroke-miterlimit="10" stroke-width="0.75"/><path d="M76.53,34.84c2,1.14,4.37,1.32,6.36,2.34,2.44,1.26,2,4.73,2.31,7S84.86,57,83.49,65.83A19.15,19.15,0,0,1,81.37,72a19.51,19.51,0,0,1-6.59,6.5" fill="none" stroke="#231f20" stroke-miterlimit="10" stroke-width="0.75"/><path d="M75,31.26a7.71,7.71,0,0,1,0,.95" fill="none" stroke="#231f20" stroke-miterlimit="10" stroke-width="0.75"/><path d="M50.48,64.94a1,1,0,0,0,1.24-.11c.73-.54.89-.08.89-.08" fill="none" stroke="#231f20" stroke-miterlimit="10" stroke-width="0.75"/><path d="M47.49,62.41c-.52-1-.39-2.84-1.18-4A22.55,22.55,0,0,1,44,52.88c-.29-1.35.26-3.89,1.43-4.25s2.77-.84,4,1.29,3.48,5.33,3.48,5.33.09-4.91,1.48-7.59,4.81-6.85,4.87-8.15,1.75-3.59,1.08-4.39-1.2.11,3,.6" fill="none" stroke="#231f20" stroke-miterlimit="10" stroke-width="0.75"/><path id="earring" d="M44.17,63.46a3.5,3.5,0,1,0,3.18-3.79A3.5,3.5,0,0,0,44.17,63.46Z" fill="#f7de48" stroke="#020202" stroke-miterlimit="10" stroke-width="0.75"/><path d="M76.53,40.45s2.91-2.1,4.54,1.71" fill="none" stroke="#231f20" stroke-miterlimit="10" stroke-width="0.75"/><path d="M65.66,40.11a3.3,3.3,0,0,0-3.82,1.2" fill="none" stroke="#231f20" stroke-miterlimit="10" stroke-width="0.75"/><path d="M77.08,55.67a1.12,1.12,0,1,0,2.19-.19,1.12,1.12,0,1,0-2.19.19Z" fill="#fff" stroke="#020202" stroke-miterlimit="10" stroke-width="0.75"/><path d="M63.94,55.47a1.12,1.12,0,1,0,1-1.44A1.25,1.25,0,0,0,63.94,55.47Z" fill="#fff" stroke="#020202" stroke-miterlimit="10" stroke-width="0.75"/><path d="M79.66,59.89s-.1.4-1.41.13-1.62-.89-1.62-.89" fill="none" stroke="#231f20" stroke-miterlimit="10" stroke-width="0.75"/><path d="M65.84,59s-1.2,1.55-2.26,1.26A3.78,3.78,0,0,1,62,59.37" fill="none" stroke="#231f20" stroke-miterlimit="10" stroke-width="0.75"/><path d="M66.06,44.72s-2.26-2.51-3.82.33-2.14,4.19-2.14,4.19" fill="none" stroke="#231f20" stroke-miterlimit="10" stroke-width="0.75"/><path d="M77,45.16s1.53-1.68,3.27.56A13.92,13.92,0,0,1,82.53,50" fill="none" stroke="#231f20" stroke-miterlimit="10" stroke-width="0.75"/><path id="nose-4" data-name="nose" d="M70.67,59.38s1.68,3.11,3.31,4.13c7,4.33-5.46,7-6,3.32" fill="none" stroke="#231f20" stroke-miterlimit="10" stroke-width="0.75"/><path id="hair-10" data-name="hair" d="M44.65,48.8s-2.09-6.95-2.09-10.12c0-6.7,3.53-13.26,3.53-13.26a15,15,0,0,1,.37-5.13c.69-2.23,5.42-7.4,10.12-7.85s8.1.24,9.08.68a46,46,0,0,1,4,2.49A17.39,17.39,0,0,1,78.14,14c4.48.42,8.29,1.44,9.73,3.25s3.1,3.61,3.26,6.7A45.59,45.59,0,0,1,91,30a15.45,15.45,0,0,1,.74,4.87c-.1,2.41-1.91,7.42-2.94,9.62a48.73,48.73,0,0,1-3.67,5.79S84.92,42.45,85,41s-1.27-4-3-4.44-4.8-.67-5.39-1.74S75,31.6,75,31.6s-.83.42-3,1.59-3.06,2.5-4.74,3.09-4-.16-4.76-.34a14.69,14.69,0,0,1-2.4-1.47,10.5,10.5,0,0,1-.21,5,33.34,33.34,0,0,1-4.24,7c-1.74,2.33-2.74,8.78-2.74,8.78S48.6,49.4,47.63,48.8A4,4,0,0,0,44.65,48.8Z" fill="#eae4e1" stroke="#020202" stroke-miterlimit="10" stroke-width="0.75"/><path d="M66.38,71.74a8.5,8.5,0,0,1-.78-.81c-.36-.41-1.47-2-2.17-1.77s-.7,2.76-.7,3.41a3.41,3.41,0,0,0,.53,2.1,3.68,3.68,0,0,0,1.85,1.1,21.18,21.18,0,0,0,2.61.65,3.78,3.78,0,0,0,1.57,0,1.45,1.45,0,0,0,1.11-1A1.54,1.54,0,0,0,69.83,74a6.23,6.23,0,0,0-1.36-.82A10.1,10.1,0,0,1,66.38,71.74Z" fill="#fff" stroke="#020202" stroke-miterlimit="10" stroke-width="0.75"/></g></g></svg>